Coordinates
version=1
nRows=19
nColumns=34
inDegrees=yes

Units are S.I. units (second, meters, Newtons, ...)
If the header above contains a line with 'inDegrees', this indicates whether rotational values are in degrees (yes) or radians (no).

endheader
time	pelvis_tilt	pelvis_list	pelvis_rotation	pelvis_tx	pelvis_ty	pelvis_tz	hip_flexion_r	hip_adduction_r	hip_rotation_r	knee_angle_r	ankle_angle_r	subtalar_angle_r	mtp_angle_r	hip_flexion_l	hip_adduction_l	hip_rotation_l	knee_angle_l	ankle_angle_l	subtalar_angle_l	mtp_angle_l	lumbar_extension	lumbar_bending	lumbar_rotation	arm_flex_r	arm_add_r	arm_rot_r	elbow_flex_r	pro_sup_r	arm_flex_l	arm_add_l	arm_rot_l	elbow_flex_l	pro_sup_l
      4.46666670	     -0.59865317	      6.03170286	    -95.03951906	      0.75645223	      0.93078462	     -0.20078368	     12.31994592	     -0.02649290	     29.34757379	     19.14254403	     -7.87755475	    -35.00000000	      0.00000000	     25.04692311	     -6.73968876	      5.34706116	     18.13691526	      3.28809069	    -19.00469769	      0.00000000	    -13.10024988	    -12.07822926	      9.74851213	      8.13765714	    -19.16210780	     82.66727000	     70.50732024	     88.35792710	      6.13918993	    -36.09010032	     41.27579988	     38.74732966	     26.85431484
      4.48333330	     -1.13358291	      6.64296618	    -95.76587597	      0.76851178	      0.92813776	     -0.20859657	     12.44875062	      0.04861067	     32.02754061	     18.97812795	     -5.15739417	    -35.00000000	      0.00000000	     25.45221160	     -6.58951438	      5.76775147	     13.69630188	      2.26595380	    -18.51591984	      0.00000000	    -12.99081242	    -10.94266958	     10.28610135	      9.24883725	    -21.89238554	     81.60275165	     71.55347345	     88.20306520	      6.00638394	    -35.16143659	     41.22774361	     38.74669051	     27.55151416
      4.50000000	     -1.51224622	      7.03525123	    -96.63730635	      0.77690920	      0.92502737	     -0.21466410	     12.84515570	     -0.83541318	     32.83756584	     18.74184233	     -4.62774834	    -35.00000000	      0.00000000	     25.65485756	     -5.85662792	      6.66623944	      9.24703044	      0.54697513	    -16.29515393	      0.00000000	    -13.18493883	     -9.63145414	     11.37121553	      9.80650892	    -25.75014671	     79.16553062	     73.29077665	     87.65615119	      6.50028516	    -33.46069810	     41.07842776	     38.44471970	     30.05402318
      4.51666670	     -1.77536679	      7.63388230	    -98.06517536	      0.77995241	      0.92015965	     -0.21773888	     13.79548994	     -1.76344131	     33.06591285	     18.95578127	     -5.28172501	    -35.00000000	      0.00000000	     26.08590778	     -5.14306980	      6.96539530	      5.18035147	     -1.62574839	    -10.51326204	      0.00000000	    -12.72462844	     -8.41467977	     12.67836466	     10.74189901	    -29.57700589	     77.26991257	     73.83313457	     87.13384167	      6.39004082	    -32.23973139	     41.47925663	     38.51496957	     32.09867660
      4.53333330	     -2.32899552	      7.96562875	    -99.60262190	      0.78309984	      0.91734471	     -0.22149840	     14.28134842	     -2.27522312	     33.08924100	     19.20445904	     -6.55789798	    -35.00000000	      0.00000000	     26.28336510	     -4.78657890	      7.26228367	      1.51700294	     -5.09301864	     -4.51344389	      0.00000000	    -12.50634092	     -6.86856917	     14.18790539	     11.92228775	    -33.55029634	     75.32433860	     73.71695819	     86.61493623	      6.10636351	    -30.99588435	     41.80593022	     38.59078810	     33.27856783
      4.55000000	     -3.23786064	      8.37496974	   -100.73584864	      0.78922903	      0.91466069	     -0.22687575	     14.73201864	     -2.24826722	     32.45267996	     19.80329176	     -6.91627272	    -35.00000000	      0.00000000	     27.56065265	     -4.78472376	      6.35481019	      0.00000000	     -7.31975907	      1.38308063	      0.00000000	    -12.55159143	     -4.96788533	     15.94414389	     12.14147832	    -37.73720045	     71.84408787	     73.13582856	     85.09947052	      6.59878727	    -29.75757091	     42.69884932	     38.55549987	     35.96444896
      4.56666670	     -4.17913237	      9.04666509	   -101.31847037	      0.79746450	      0.91304974	     -0.23289058	     15.46300555	     -2.17810280	     30.72267180	     20.50695728	     -7.60633998	    -35.00000000	      0.00000000	     29.70865329	     -4.74439391	      4.99447781	      0.00000000	     -8.36762790	      4.18391496	      0.00000000	    -12.55412726	     -2.90663331	     16.73392740	     13.38440440	    -42.13378260	     70.76399275	     74.06221240	     84.57776206	      6.68698235	    -28.76956842	     43.15697161	     38.68790473	     36.76204021
      4.58333330	     -4.99772962	      9.21156690	   -101.79641181	      0.80576864	      0.91244159	     -0.23676404	     15.44586649	     -2.33453306	     28.72072953	     20.81410703	     -8.68510038	    -35.00000000	      0.00000000	     30.94748852	     -4.45054961	      2.59050975	      0.00000000	     -8.88069506	      5.99107036	      0.00000000	    -13.03144333	     -1.10722835	     17.57758694	     14.56584835	    -46.01732611	     70.13682545	     75.87246712	     84.19595473	      6.91783904	    -27.48600280	     43.74170837	     38.70327695	     37.36428608
      4.60000000	     -5.93297387	      9.13221058	   -102.26958029	      0.81293133	      0.91068265	     -0.23841397	     15.10446553	     -2.26618178	     26.70582521	     21.27447935	    -10.25357628	    -35.00000000	      0.00000000	     31.56228536	     -4.00916779	     -0.40854388	      0.00000000	     -9.78810468	      7.60035358	      0.00000000	    -13.82116680	      0.58236869	     18.52977671	     15.63316857	    -49.46273023	     69.99615559	     79.08176107	     83.97141362	      7.24732710	    -26.24971934	     44.47010707	     38.49844162	     37.92619763
      4.61666670	     -7.21700148	      8.92797334	   -102.73188596	      0.81701152	      0.90728390	     -0.23808440	     14.41953513	     -1.59284032	     25.12400207	     21.97485271	    -11.67970211	    -35.00000000	      0.00000000	     31.68443409	     -3.72387127	     -3.59567483	      0.00000000	    -11.27860397	      9.30634927	      0.00000000	    -14.66878336	      2.43071167	     19.70393211	     16.26107271	    -52.13289495	     70.22586185	     82.45341242	     83.91107924	      7.40940639	    -25.12342702	     45.23982495	     38.25391091	     38.43211190
      4.63333330	     -8.61481081	      8.66573405	   -103.07615653	      0.81590274	      0.90231991	     -0.23496488	     13.55003493	     -0.41167861	     24.24981104	     23.18548216	    -12.24777559	    -35.00000000	      0.00000000	     31.33028968	     -3.67497445	     -6.56371861	      0.00000000	    -12.85657549	     10.77635417	      0.00000000	    -15.26212095	      4.07888300	     20.81171111	     16.15088179	    -53.54726183	     70.55861610	     85.06822144	     83.94334892	      7.24429875	    -24.52065423	     45.92031915	     38.03574269	     38.87288698
      4.65000000	     -9.65621037	      8.39046097	   -103.10645295	      0.81167256	      0.89849362	     -0.23033396	     12.64178588	      0.75306028	     23.86369556	     24.88338429	    -11.64827894	    -35.00000000	      0.00000000	     30.52140745	     -3.64455640	     -8.72733902	      0.00000000	    -13.90394801	     11.37869893	      0.00000000	    -15.42444840	      4.98373764	     21.37879764	     15.23905028	    -53.90469710	     70.75053540	     86.39790514	     83.99604304	      6.89711549	    -24.78887214	     46.36483443	     37.91153888	     39.22810133
      4.66666670	    -10.26090817	      8.20896935	   -102.77050011	      0.81096743	      0.89610019	     -0.22685757	     11.92425343	      1.62801978	     23.59070164	     26.97850557	    -10.53706153	    -35.00000000	      0.00000000	     29.52030665	     -3.50852526	     -9.66476204	      0.00000000	    -14.23886942	     10.93424651	      0.00000000	    -15.21143307	      5.30617188	     21.32243896	     14.55255142	    -53.23646384	     70.73415489	     85.94548223	     83.98473144	      6.44052383	    -25.45815845	     46.40880546	     37.62993389	     39.29204091
      4.68333330	    -10.35572317	      8.04363415	   -102.45890357	      0.81625307	      0.89425728	     -0.22526523	     11.59368209	      1.96293042	     23.25565687	     29.59776226	     -9.58618100	    -35.00000000	      0.00000000	     28.45954725	     -3.06982165	    -10.27200723	      0.00000000	    -14.07623888	     10.00042432	      0.00000000	    -14.86290127	      4.95252728	     21.03831862	     13.49383892	    -52.05099626	     70.65568132	     85.03927989	     83.94259411	      6.10801676	    -26.30742898	     46.31628878	     37.43366601	     39.33404564
      4.70000000	    -10.25051138	      8.47036643	   -102.37717425	      0.82314313	      0.89354711	     -0.22368127	     12.21532087	      2.16636690	     22.81779401	     32.58418249	     -9.58512941	    -35.00000000	      0.00000000	     28.04716232	     -2.56351984	    -10.67393043	      0.00000000	    -14.34025685	      8.22493936	      0.00000000	    -13.71468105	      4.40600335	     20.98549629	     11.32634824	    -49.80574094	     70.26688159	     83.77522240	     83.89290497	      5.50660299	    -27.01534625	     46.06824152	     37.65446666	     39.40027186
      4.71666670	    -10.20135156	      8.59920446	   -102.03826410	      0.82710444	      0.89411813	     -0.22042008	     12.73308585	      2.46132180	     22.04040170	     35.97410982	     -9.77031907	    -35.00000000	      0.00000000	     27.37395810	     -1.82813437	    -11.31113183	      0.00000000	    -14.59515690	      7.53282815	      0.00000000	    -12.98622446	      3.88711692	     20.99338020	      9.01020310	    -47.26333280	     71.53907966	     84.73524567	     84.04262251	      5.35791241	    -27.24586853	     45.88408241	     37.43331475	     39.37252716
      4.73333330	     -9.96999887	      9.20944510	   -101.95666834	      0.82732652	      0.89530435	     -0.21723353	     14.26243338	      3.30307579	     22.02989935	     40.51391887	    -10.10443601	    -35.00000000	      0.00000000	     27.21557864	     -1.20410985	    -12.47372406	      0.00000000	    -15.20689166	      6.99131312	      0.00000000	    -11.47253309	      3.10404657	     21.15760838	      6.71883278	    -43.36244639	     73.36270634	     85.06710445	     84.49391645	      5.20521283	    -27.55135521	     45.74307139	     36.90032834	     39.26285643
      4.75000000	     -9.33065613	      9.63795115	   -101.71060489	      0.82834013	      0.89669014	     -0.21610850	     16.22643312	      4.38150537	     22.61571160	     46.37507480	    -10.60091863	    -35.00000000	      0.00000000	     26.89349252	     -0.24507299	    -14.02534031	      0.00000000	    -15.82636019	      7.18408803	      0.00000000	    -10.28459482	      1.69480574	     20.96576436	      5.33880522	    -38.84713419	     75.49478894	     84.02987215	     85.13965517	      5.31301223	    -28.02769520	     45.63410533	     36.24034475	     39.06666369
      4.76666670	     -8.24724966	     10.16176563	   -101.20733327	      0.83084742	      0.89842730	     -0.21640071	     18.72654125	      5.56692861	     23.64750348	     52.95053135	    -11.29984676	    -35.00000000	      0.00000000	     26.68266172	      1.09958885	    -15.96016231	      0.00000000	    -16.15753990	      7.58765639	      0.00000000	     -9.12189292	     -0.05303946	     20.06770252	      4.83849629	    -34.65790339	     78.12870549	     82.37522661	     86.20810501	      5.47618520	    -28.79270966	     45.40772544	     35.99946892	     38.67419993
